<svg width="213" height="76" viewBox="0 0 213 76" fill="none" xmlns="http://www.w3.org/2000/svg">
<g filter="url(#filter0_d_357_376)">
<rect x="9" y="9" width="50.9281" height="52" rx="5" fill="white"/>
</g>
<path d="M46.9484 32.4539H45.9228V32.4H34.464V37.6H41.6595C40.6097 40.627 37.7889 42.8 34.464 42.8C30.2452 42.8 26.8247 39.3075 26.8247 35C26.8247 30.6924 30.2452 27.2 34.464 27.2C36.4113 27.2 38.183 27.9501 39.532 29.1753L43.1332 25.4983C40.8593 23.3344 37.8176 22 34.464 22C27.4327 22 21.7319 27.8207 21.7319 35C21.7319 42.1792 27.4327 48 34.464 48C41.4952 48 47.196 42.1792 47.196 35C47.196 34.1283 47.1082 33.2775 46.9484 32.4539Z" fill="#FFC107"/>
<path d="M23.2 28.9492L27.3831 32.0815C28.5149 29.2202 31.2561 27.2 34.464 27.2C36.4114 27.2 38.183 27.9501 39.532 29.1754L43.1332 25.4983C40.8593 23.3345 37.8176 22 34.464 22C29.5736 22 25.3326 24.8191 23.2 28.9492Z" fill="#FF3D00"/>
<path d="M34.4641 47.9999C37.7528 47.9999 40.741 46.7149 43.0003 44.6251L39.0597 41.2204C37.7385 42.2464 36.124 42.8013 34.4641 42.7999C31.1525 42.7999 28.3406 40.6439 27.2813 37.635L23.1294 40.9013C25.2365 45.1113 29.5158 47.9999 34.4641 47.9999Z" fill="#4CAF50"/>
<path d="M46.9485 32.4539H45.9229V32.3999H34.4641V37.5999H41.6596C41.1575 39.0406 40.253 40.2995 39.0578 41.2211L39.0597 41.2198L43.0003 44.6245C42.7215 44.8832 47.1962 41.4999 47.1962 34.9999C47.1962 34.1283 47.1083 33.2774 46.9485 32.4539Z" fill="#1976D2"/>
<g filter="url(#filter1_d_357_376)">
<rect x="147.072" y="9" width="50.9281" height="52" rx="5" fill="white"/>
</g>
<path d="M179.56 35.7221C179.549 33.6441 180.471 32.078 182.333 30.9232C181.291 29.3998 179.716 28.5619 177.639 28.4004C175.672 28.242 173.521 29.5704 172.733 29.5704C171.9 29.5704 169.997 28.4553 168.499 28.4553C165.407 28.504 162.122 30.972 162.122 35.9932C162.122 37.4771 162.387 39.0096 162.918 40.5879C163.629 42.6659 166.189 47.7572 168.86 47.675C170.256 47.6414 171.244 46.6634 173.061 46.6634C174.825 46.6634 175.738 47.675 177.296 47.675C179.99 47.6353 182.306 43.0071 182.98 40.9231C179.367 39.1833 179.56 35.8287 179.56 35.7221ZM176.424 26.4291C177.937 24.5949 177.8 22.9252 177.755 22.325C176.418 22.4042 174.873 23.2542 173.992 24.2993C173.022 25.4206 172.452 26.8069 172.575 28.37C174.019 28.4827 175.338 27.724 176.424 26.4291Z" fill="black"/>
<g filter="url(#filter2_d_357_376)">
<rect x="78.0359" y="9" width="50.9281" height="52" rx="5" fill="white"/>
</g>
<g clip-path="url(#clip0_357_376)">
<rect width="30.5569" height="31.2" transform="translate(88.2214 19.3999)" fill="white"/>
<path d="M117.092 50.6C118.023 50.6 118.778 49.829 118.778 48.8781V21.1219C118.778 20.1708 118.023 19.3999 117.092 19.3999H89.9079C88.9763 19.3999 88.2214 20.1708 88.2214 21.1219V48.8781C88.2214 49.829 88.9763 50.6 89.9079 50.6H117.092Z" fill="#395185"/>
<path d="M109.305 50.6001V38.5178H113.277L113.872 33.8092H109.305V30.8028C109.305 29.4395 109.676 28.5104 111.591 28.5104L114.033 28.5093V24.2979C113.61 24.2405 112.161 24.1123 110.474 24.1123C106.953 24.1123 104.543 26.3067 104.543 30.3366V33.8092H100.561V38.5178H104.543V50.6001H109.305Z" fill="white"/>
</g>
<defs>
<filter id="filter0_d_357_376" x="0" y="0" width="74.9282" height="76" filterUnits="userSpaceOnUse" color-interpolation-filters="sRGB">
<feFlood flood-opacity="0" result="BackgroundImageFix"/>
<feColorMatrix in="SourceAlpha" type="matrix" values="0 0 0 0 0 0 0 0 0 0 0 0 0 0 0 0 0 0 127 0" result="hardAlpha"/>
<feOffset dx="3" dy="3"/>
<feGaussianBlur stdDeviation="6"/>
<feColorMatrix type="matrix" values="0 0 0 0 0 0 0 0 0 0 0 0 0 0 0 0 0 0 0.15 0"/>
<feBlend mode="normal" in2="BackgroundImageFix" result="effect1_dropShadow_357_376"/>
<feBlend mode="normal" in="SourceGraphic" in2="effect1_dropShadow_357_376" result="shape"/>
</filter>
<filter id="filter1_d_357_376" x="138.072" y="0" width="74.9282" height="76" filterUnits="userSpaceOnUse" color-interpolation-filters="sRGB">
<feFlood flood-opacity="0" result="BackgroundImageFix"/>
<feColorMatrix in="SourceAlpha" type="matrix" values="0 0 0 0 0 0 0 0 0 0 0 0 0 0 0 0 0 0 127 0" result="hardAlpha"/>
<feOffset dx="3" dy="3"/>
<feGaussianBlur stdDeviation="6"/>
<feColorMatrix type="matrix" values="0 0 0 0 0 0 0 0 0 0 0 0 0 0 0 0 0 0 0.15 0"/>
<feBlend mode="normal" in2="BackgroundImageFix" result="effect1_dropShadow_357_376"/>
<feBlend mode="normal" in="SourceGraphic" in2="effect1_dropShadow_357_376" result="shape"/>
</filter>
<filter id="filter2_d_357_376" x="69.0359" y="0" width="74.9282" height="76" filterUnits="userSpaceOnUse" color-interpolation-filters="sRGB">
<feFlood flood-opacity="0" result="BackgroundImageFix"/>
<feColorMatrix in="SourceAlpha" type="matrix" values="0 0 0 0 0 0 0 0 0 0 0 0 0 0 0 0 0 0 127 0" result="hardAlpha"/>
<feOffset dx="3" dy="3"/>
<feGaussianBlur stdDeviation="6"/>
<feColorMatrix type="matrix" values="0 0 0 0 0 0 0 0 0 0 0 0 0 0 0 0 0 0 0.15 0"/>
<feBlend mode="normal" in2="BackgroundImageFix" result="effect1_dropShadow_357_376"/>
<feBlend mode="normal" in="SourceGraphic" in2="effect1_dropShadow_357_376" result="shape"/>
</filter>
<clipPath id="clip0_357_376">
<rect width="30.5569" height="31.2" fill="white" transform="translate(88.2214 19.3999)"/>
</clipPath>
</defs>
</svg>
