<svg width="396" height="395" viewBox="0 0 396 395" fill="none" xmlns="http://www.w3.org/2000/svg">
<g filter="url(#filter0_f_62_44)">
<circle cx="198.55" cy="197.5" r="156.75" fill="url(#paint0_radial_62_44)"/>
<circle cx="198.55" cy="197.5" r="156.75" fill="url(#paint1_radial_62_44)"/>
<circle cx="198.55" cy="197.5" r="156.75" fill="url(#paint2_radial_62_44)"/>
<circle cx="198.55" cy="197.5" r="156.75" fill="url(#paint3_radial_62_44)"/>
<circle cx="198.55" cy="197.5" r="156.75" fill="url(#paint4_radial_62_44)"/>
</g>
<path d="M21.5566 216.744C21.5318 215.28 21.3829 214.063 21.1098 213.095C20.8368 212.127 20.3528 211.408 19.6578 210.936C18.9877 210.44 18.0073 210.204 16.7166 210.229H13.552L13.5148 230.519C13.5148 231.19 13.5024 231.773 13.4775 232.269C13.4775 232.741 13.4527 233.138 13.4031 233.461C13.9243 233.436 14.4331 233.411 14.9295 233.386C15.4508 233.361 15.972 233.337 16.4932 233.312V234.95H7.744V233.721C8.68718 233.672 9.3201 233.448 9.64277 233.051C9.99026 232.654 10.1764 232.12 10.2012 231.45C10.2509 230.755 10.2757 229.986 10.2757 229.142L10.3129 210.266L6.47815 210.303C4.91446 210.303 3.80995 210.824 3.16462 211.867C2.51928 212.909 2.19662 214.535 2.19662 216.744H0.819077L1.04246 208.888H22.748L22.9714 216.744H21.5566ZM32.6447 235.546C30.9321 235.546 29.3808 235.149 27.9908 234.354C26.6257 233.535 25.546 232.393 24.7518 230.929C23.9575 229.44 23.5604 227.69 23.5604 225.679C23.5604 223.942 23.9451 222.316 24.7145 220.802C25.5088 219.288 26.6133 218.072 28.0281 217.154C29.4428 216.21 31.081 215.739 32.9425 215.739C33.985 215.739 34.953 215.913 35.8465 216.26C36.7649 216.583 37.5716 217.092 38.2665 217.787C38.9615 218.457 39.5076 219.313 39.9047 220.355C40.3018 221.373 40.5004 222.577 40.5004 223.967L27.3952 224.19C27.3952 226.077 27.5937 227.74 27.9908 229.179C28.4128 230.594 29.083 231.698 30.0013 232.493C30.9197 233.262 32.0986 233.647 33.5382 233.647C34.3077 233.647 35.0895 233.51 35.8838 233.237C36.7028 232.964 37.4599 232.592 38.1548 232.12C38.8498 231.649 39.4083 231.128 39.8302 230.557L40.7238 231.301C40.0536 232.344 39.247 233.175 38.3038 233.796C37.3606 234.416 36.3926 234.863 35.3998 235.136C34.407 235.409 33.4886 235.546 32.6447 235.546ZM27.5068 222.627H37.0007C37.0007 221.733 36.8642 220.877 36.5912 220.058C36.343 219.214 35.921 218.531 35.3253 218.01C34.7296 217.464 33.9478 217.191 32.9798 217.191C31.5402 217.191 30.3364 217.625 29.3684 218.494C28.4252 219.338 27.8047 220.715 27.5068 222.627ZM43.4413 233.833C44.2108 233.833 44.7444 233.647 45.0423 233.275C45.3401 232.877 45.5138 232.344 45.5635 231.674C45.6131 230.979 45.6379 230.184 45.6379 229.291V211.681C45.6379 211.284 45.6379 210.911 45.6379 210.564C45.6628 210.191 45.7 209.757 45.7496 209.261C45.3029 209.286 44.8561 209.31 44.4093 209.335C43.9874 209.36 43.553 209.385 43.1063 209.41V207.846C44.1984 207.846 45.0423 207.796 45.6379 207.697C46.2585 207.598 46.7176 207.474 47.0155 207.325C47.3382 207.176 47.5864 207.014 47.7601 206.841H48.8398L48.877 231.003C48.877 231.5 48.8646 231.947 48.8398 232.344C48.815 232.716 48.7653 233.113 48.6909 233.535C49.088 233.51 49.4727 233.498 49.845 233.498C50.2422 233.473 50.6393 233.448 51.0364 233.423V234.95H43.4413V233.833ZM53.5853 233.833C54.3547 233.833 54.8883 233.647 55.1862 233.275C55.484 232.877 55.6578 232.344 55.7074 231.674C55.7571 230.979 55.7819 230.184 55.7819 229.291V211.681C55.7819 211.284 55.7819 210.911 55.7819 210.564C55.8067 210.191 55.8439 209.757 55.8936 209.261C55.4468 209.286 55 209.31 54.5533 209.335C54.1313 209.36 53.697 209.385 53.2502 209.41V207.846C54.3423 207.846 55.1862 207.796 55.7819 207.697C56.4024 207.598 56.8616 207.474 57.1594 207.325C57.4821 207.176 57.7303 207.014 57.904 206.841H58.9837L59.021 231.003C59.021 231.5 59.0085 231.947 58.9837 232.344C58.9589 232.716 58.9093 233.113 58.8348 233.535C59.2319 233.51 59.6166 233.498 59.989 233.498C60.3861 233.473 60.7832 233.448 61.1803 233.423V234.95H53.5853V233.833ZM76.7486 245.039C75.9792 245.039 75.3214 244.853 74.7754 244.481C74.2293 244.109 73.9563 243.538 73.9563 242.768C73.9563 242.322 74.1052 241.912 74.4031 241.54C74.7009 241.167 75.0856 240.981 75.5572 240.981C76.1529 240.957 76.55 241.143 76.7486 241.54C76.972 241.937 77.0837 242.284 77.0837 242.582C77.0837 242.657 77.0837 242.731 77.0837 242.806C77.0837 242.905 77.0713 243.004 77.0465 243.103C77.1209 243.153 77.2574 243.178 77.456 243.178C77.7538 243.178 78.0765 243.054 78.424 242.806C78.7715 242.557 79.0817 242.198 79.3548 241.726C79.6774 241.18 80.0497 240.361 80.4717 239.269C80.9185 238.177 81.4149 236.874 81.9609 235.359L76.1529 222.924C75.5076 221.534 75.036 220.43 74.7382 219.611C74.4651 218.792 74.279 218.184 74.1797 217.787L72.3926 217.861V216.335H80.0994V217.451H79.9505C78.908 217.526 78.3371 217.923 78.2378 218.643C78.1386 219.338 78.424 220.405 79.0942 221.845L83.4502 231.19C84.021 229.601 84.5671 228.037 85.0883 226.499C85.6095 224.935 86.1308 223.384 86.652 221.845C86.8506 221.299 87.0491 220.74 87.2477 220.169C87.4711 219.574 87.6821 219.052 87.8806 218.606C88.104 218.134 88.3026 217.836 88.4763 217.712L85.9074 217.861V216.335H91.7526V217.451C90.8343 217.799 90.1393 218.382 89.6677 219.201C89.2209 219.996 88.7617 221.026 88.2902 222.291L83.6363 235.285C82.8917 237.37 82.2091 239.132 81.5886 240.572C80.9681 242.036 80.2855 243.141 79.5409 243.885C78.7963 244.655 77.8655 245.039 76.7486 245.039ZM102.421 235.546C100.684 235.546 99.1077 235.149 97.693 234.354C96.2782 233.535 95.1489 232.418 94.305 231.003C93.4859 229.564 93.0763 227.926 93.0763 226.089C93.0763 224.128 93.4859 222.366 94.305 220.802C95.124 219.239 96.241 218.01 97.6557 217.116C99.0705 216.198 100.659 215.739 102.421 215.739C104.159 215.739 105.735 216.161 107.15 217.005C108.564 217.824 109.694 218.941 110.538 220.355C111.381 221.77 111.803 223.384 111.803 225.195C111.803 227.107 111.381 228.857 110.538 230.445C109.718 232.009 108.602 233.25 107.187 234.168C105.772 235.086 104.184 235.546 102.421 235.546ZM102.719 234.056C104.035 234.056 105.077 233.684 105.846 232.939C106.616 232.195 107.162 231.227 107.485 230.035C107.832 228.844 108.006 227.591 108.006 226.275C108.006 225.158 107.894 224.066 107.671 222.999C107.472 221.907 107.15 220.926 106.703 220.058C106.256 219.164 105.673 218.457 104.953 217.935C104.258 217.414 103.414 217.154 102.421 217.154C101.131 217.154 100.076 217.526 99.2567 218.271C98.4376 219.015 97.8295 219.983 97.4323 221.175C97.06 222.366 96.8739 223.644 96.8739 225.009C96.8739 226.548 97.0849 228.013 97.5068 229.403C97.9288 230.768 98.5741 231.885 99.4428 232.753C100.312 233.622 101.404 234.056 102.719 234.056ZM122.822 235.546C121.482 235.546 120.353 235.297 119.434 234.801C118.541 234.305 117.858 233.461 117.387 232.269C116.94 231.078 116.716 229.465 116.716 227.429V220.802C116.716 220.405 116.716 220.008 116.716 219.611C116.741 219.214 116.791 218.804 116.865 218.382C116.443 218.407 116.009 218.432 115.562 218.457C115.14 218.457 114.718 218.469 114.296 218.494V216.967H115.451C116.518 216.967 117.287 216.868 117.759 216.67C118.255 216.446 118.64 216.21 118.913 215.962H119.993V227.318C119.993 229.452 120.291 231.053 120.886 232.12C121.507 233.163 122.549 233.672 124.014 233.647C124.957 233.622 125.85 233.337 126.694 232.791C127.563 232.22 128.258 231.55 128.779 230.78V221.212C128.779 220.616 128.792 220.107 128.816 219.685C128.841 219.239 128.891 218.804 128.965 218.382C128.519 218.407 128.072 218.432 127.625 218.457C127.178 218.457 126.732 218.469 126.285 218.494V216.967H127.439C128.506 216.967 129.276 216.868 129.747 216.67C130.244 216.446 130.628 216.21 130.901 215.962H131.981L131.944 230.035C131.944 230.433 131.931 230.991 131.907 231.711C131.882 232.431 131.845 233.039 131.795 233.535C132.242 233.51 132.688 233.486 133.135 233.461C133.582 233.436 134.029 233.411 134.476 233.386V234.95H129.152C129.077 234.528 129.015 234.131 128.965 233.759C128.941 233.386 128.916 233.039 128.891 232.716C128.121 233.486 127.191 234.156 126.099 234.727C125.006 235.273 123.914 235.546 122.822 235.546ZM137.181 233.833C137.951 233.833 138.485 233.647 138.782 233.275C139.08 232.877 139.254 232.344 139.304 231.674C139.353 230.979 139.378 230.184 139.378 229.291V220.802C139.378 220.405 139.378 220.008 139.378 219.611C139.403 219.214 139.453 218.804 139.527 218.382C139.08 218.407 138.633 218.432 138.187 218.457C137.765 218.457 137.33 218.469 136.884 218.494V216.967H138.038C139.105 216.967 139.837 216.868 140.234 216.67C140.656 216.446 141.004 216.21 141.277 215.962H142.357C142.406 216.359 142.443 216.856 142.468 217.451C142.493 218.022 142.518 218.755 142.543 219.648C142.915 219.028 143.424 218.419 144.069 217.824C144.714 217.228 145.434 216.732 146.229 216.335C147.048 215.937 147.904 215.739 148.797 215.739C149.492 215.739 150.101 215.925 150.622 216.297C151.143 216.67 151.404 217.265 151.404 218.084C151.404 218.283 151.342 218.531 151.217 218.829C151.093 219.102 150.895 219.35 150.622 219.574C150.349 219.772 149.989 219.871 149.542 219.871C148.996 219.847 148.562 219.636 148.239 219.239C147.916 218.817 147.792 218.333 147.867 217.787C147.246 217.762 146.601 217.923 145.931 218.271C145.285 218.618 144.677 219.102 144.106 219.723C143.535 220.318 143.027 221.026 142.58 221.845L142.617 231.003C142.617 231.5 142.605 231.947 142.58 232.344C142.58 232.716 142.543 233.113 142.468 233.535C142.865 233.51 143.25 233.498 143.622 233.498C144.019 233.473 144.417 233.448 144.814 233.423V234.95H137.181V233.833ZM168.765 235.359C167.623 235.359 166.568 235.198 165.6 234.875C164.632 234.528 163.838 234.044 163.217 233.423C162.622 232.778 162.324 232.021 162.324 231.152C162.324 230.457 162.522 229.899 162.92 229.477C163.341 229.03 163.85 228.807 164.446 228.807C165.067 228.807 165.551 229.018 165.898 229.44C166.27 229.837 166.456 230.309 166.456 230.855C166.456 231.028 166.432 231.214 166.382 231.413C166.357 231.612 166.295 231.81 166.196 232.009C166.345 232.356 166.692 232.654 167.238 232.902C167.809 233.15 168.33 233.275 168.802 233.275C169.969 233.275 170.812 233.014 171.334 232.493C171.855 231.971 172.116 231.326 172.116 230.557C172.116 230.011 171.917 229.539 171.52 229.142C171.123 228.72 170.614 228.323 169.993 227.951C169.373 227.553 168.715 227.156 168.02 226.759C167.003 226.163 166.121 225.593 165.377 225.047C164.657 224.501 164.111 223.93 163.739 223.334C163.366 222.713 163.18 221.994 163.18 221.175C163.18 220.281 163.453 219.437 163.999 218.643C164.545 217.849 165.327 217.203 166.345 216.707C167.362 216.186 168.591 215.925 170.031 215.925C170.999 215.925 171.942 216.086 172.86 216.409C173.779 216.707 174.536 217.154 175.131 217.749C175.727 218.345 176.025 219.052 176.025 219.871C176.025 220.467 175.839 220.988 175.466 221.435C175.094 221.857 174.585 222.068 173.94 222.068C173.344 222.068 172.86 221.87 172.488 221.472C172.14 221.075 171.967 220.604 171.967 220.058C171.967 219.859 171.979 219.673 172.004 219.499C172.053 219.325 172.128 219.152 172.227 218.978C172.053 218.655 171.743 218.407 171.296 218.233C170.875 218.06 170.403 217.973 169.882 217.973C169.485 217.973 169.063 218.072 168.616 218.271C168.194 218.444 167.834 218.705 167.536 219.052C167.238 219.375 167.089 219.772 167.089 220.244C167.089 220.641 167.189 220.988 167.387 221.286C167.586 221.584 167.933 221.907 168.43 222.254C168.926 222.602 169.596 223.024 170.44 223.52C171.284 224.017 172.14 224.55 173.009 225.121C173.903 225.667 174.647 226.312 175.243 227.057C175.839 227.777 176.136 228.67 176.136 229.738C176.136 230.83 175.814 231.798 175.168 232.642C174.548 233.486 173.679 234.156 172.562 234.652C171.445 235.124 170.18 235.359 168.765 235.359ZM186.8 210.824L186.093 216.335H191.156L190.97 218.531L185.87 218.606C185.77 219.549 185.659 220.554 185.535 221.621C185.41 222.664 185.299 223.694 185.2 224.711C185.125 225.729 185.051 226.672 184.976 227.541C184.902 228.385 184.864 229.08 184.864 229.626C184.864 229.998 184.902 230.395 184.976 230.817C185.051 231.239 185.212 231.599 185.46 231.897C185.708 232.195 186.105 232.344 186.652 232.344C186.875 232.344 187.173 232.294 187.545 232.195C187.917 232.071 188.327 231.847 188.774 231.525C189.22 231.177 189.642 230.644 190.04 229.924L191.64 230.929C190.846 232.393 189.903 233.498 188.811 234.243C187.719 234.987 186.515 235.359 185.2 235.359C183.958 235.359 183.015 235.099 182.37 234.578C181.725 234.056 181.29 233.374 181.067 232.53C180.844 231.686 180.732 230.805 180.732 229.887C180.781 228.993 180.844 227.938 180.918 226.722C180.992 225.506 181.092 224.203 181.216 222.813C181.34 221.398 181.476 220.008 181.625 218.643L178.535 218.68L178.796 216.335C180.608 216.335 181.936 215.863 182.78 214.92C183.648 213.952 184.281 212.587 184.678 210.824H186.8ZM202.615 215.925C204.005 215.925 205.246 216.248 206.338 216.893C207.455 217.538 208.336 218.482 208.981 219.723C209.651 220.939 209.986 222.428 209.986 224.19C209.986 226.151 209.614 227.988 208.87 229.7C208.125 231.413 207.058 232.791 205.668 233.833C204.303 234.851 202.652 235.359 200.716 235.359C199.053 235.359 197.676 234.987 196.583 234.243C195.491 233.473 194.672 232.455 194.126 231.19C193.605 229.899 193.344 228.484 193.344 226.945C193.344 224.96 193.717 223.135 194.461 221.472C195.206 219.785 196.273 218.444 197.663 217.451C199.053 216.434 200.704 215.925 202.615 215.925ZM202.056 218.01C201.212 217.985 200.468 218.333 199.822 219.052C199.177 219.747 198.681 220.691 198.333 221.882C197.986 223.073 197.812 224.389 197.812 225.828C197.787 226.623 197.824 227.454 197.924 228.323C198.023 229.167 198.197 229.961 198.445 230.706C198.718 231.45 199.078 232.058 199.525 232.53C199.971 233.002 200.53 233.237 201.2 233.237C201.969 233.262 202.615 233.014 203.136 232.493C203.682 231.971 204.116 231.301 204.439 230.482C204.762 229.663 204.998 228.794 205.146 227.876C205.32 226.958 205.42 226.089 205.444 225.27C205.469 224.55 205.432 223.768 205.333 222.924C205.258 222.081 205.097 221.286 204.849 220.542C204.625 219.797 204.278 219.201 203.806 218.755C203.359 218.283 202.776 218.035 202.056 218.01ZM214.923 234.95C214.874 234.553 214.849 234.267 214.849 234.094C214.849 233.895 214.849 233.672 214.849 233.423C214.849 232.952 214.874 232.381 214.923 231.711C214.973 231.016 215.035 230.222 215.11 229.328C215.209 228.435 215.32 227.454 215.445 226.387C215.594 225.27 215.718 224.302 215.817 223.483C215.941 222.664 216.028 221.994 216.078 221.472C216.127 220.926 216.152 220.504 216.152 220.207C216.177 219.76 216.127 219.425 216.003 219.201C215.904 218.978 215.73 218.866 215.482 218.866C215.159 218.866 214.812 219.102 214.439 219.574C214.067 220.02 213.72 220.839 213.397 222.031L211.684 221.547C211.784 221.05 211.945 220.48 212.168 219.834C212.392 219.189 212.702 218.568 213.099 217.973C213.496 217.377 213.98 216.893 214.551 216.521C215.122 216.124 215.804 215.925 216.599 215.925C217.517 215.925 218.249 216.21 218.795 216.781C219.341 217.352 219.614 218.295 219.614 219.611C219.59 220.058 219.54 220.579 219.466 221.175C219.391 221.745 219.292 222.391 219.168 223.111H219.242C219.912 221.125 220.607 219.623 221.327 218.606C222.072 217.563 222.804 216.856 223.524 216.483C224.268 216.111 224.976 215.925 225.646 215.925C226.515 215.925 227.222 216.161 227.768 216.632C228.314 217.104 228.587 217.737 228.587 218.531C228.587 219.102 228.376 219.623 227.954 220.095C227.557 220.566 227.023 220.802 226.353 220.802C225.857 220.802 225.41 220.641 225.013 220.318C224.616 219.996 224.417 219.561 224.417 219.015C223.921 218.916 223.412 219.152 222.891 219.723C222.394 220.269 221.91 221.038 221.439 222.031C220.992 223.024 220.595 224.128 220.247 225.344C219.9 226.561 219.614 227.802 219.391 229.067C219.192 230.333 219.093 231.525 219.093 232.642C219.093 232.964 219.106 233.361 219.13 233.833C219.155 234.28 219.18 234.652 219.205 234.95H214.923ZM232.855 245.039C231.812 245.015 231.006 244.742 230.435 244.22C229.864 243.724 229.579 243.091 229.579 242.322C229.579 241.602 229.802 241.031 230.249 240.609C230.696 240.212 231.167 240.013 231.664 240.013C232.905 240.013 233.587 240.671 233.711 241.987C233.786 242.036 233.873 242.061 233.972 242.061C234.071 242.086 234.158 242.098 234.232 242.098C234.704 242.123 235.188 241.949 235.684 241.577C236.181 241.23 236.652 240.795 237.099 240.274C237.571 239.753 237.98 239.219 238.328 238.673C238.7 238.152 238.973 237.73 239.147 237.407C238.948 236.117 238.663 234.764 238.291 233.349C237.943 231.909 237.534 230.47 237.062 229.03C236.59 227.566 236.094 226.151 235.573 224.786C235.052 223.421 234.555 222.167 234.084 221.026C233.91 220.604 233.674 220.169 233.376 219.723C233.103 219.251 232.743 219.028 232.296 219.052C231.924 219.052 231.589 219.288 231.291 219.76C230.993 220.231 230.82 221.038 230.77 222.18L228.983 222.031C228.983 221.46 229.057 220.827 229.206 220.132C229.38 219.437 229.653 218.767 230.025 218.122C230.398 217.476 230.882 216.955 231.477 216.558C232.098 216.136 232.867 215.925 233.786 215.925C234.63 215.925 235.325 216.136 235.871 216.558C236.441 216.955 236.913 217.464 237.285 218.084C237.683 218.68 238.005 219.288 238.253 219.909C238.651 220.902 239.085 222.118 239.556 223.557C240.028 224.997 240.475 226.523 240.897 228.137C241.319 229.75 241.654 231.339 241.902 232.902H241.939C242.51 231.736 243.019 230.557 243.466 229.365C243.912 228.149 244.272 226.97 244.545 225.828C244.843 224.662 245.005 223.582 245.029 222.589C245.054 222.217 245.042 221.758 244.992 221.212C244.943 220.666 244.794 220.256 244.545 219.983C244.446 220.033 244.347 220.07 244.248 220.095C244.148 220.095 244.037 220.095 243.912 220.095C243.342 220.095 242.858 219.909 242.46 219.536C242.088 219.139 241.902 218.68 241.902 218.159C241.902 217.389 242.138 216.831 242.609 216.483C243.106 216.111 243.627 215.925 244.173 215.925C245.042 215.925 245.737 216.186 246.258 216.707C246.779 217.203 247.152 217.836 247.375 218.606C247.598 219.375 247.71 220.169 247.71 220.988C247.71 222.254 247.511 223.681 247.114 225.27C246.742 226.834 246.208 228.459 245.513 230.147C244.843 231.835 244.086 233.486 243.242 235.099C242.2 237.06 241.108 238.785 239.966 240.274C238.849 241.788 237.683 242.955 236.466 243.774C235.275 244.618 234.071 245.039 232.855 245.039ZM267.13 235.062L262.253 220.765C262.079 220.244 261.918 219.797 261.769 219.425C261.645 219.052 261.546 218.73 261.471 218.457C261.397 218.184 261.335 217.948 261.285 217.749L259.312 217.861V216.335H267.205V217.451C266.088 217.476 265.467 217.861 265.343 218.606C265.244 219.325 265.393 220.281 265.79 221.472L267.503 226.685C267.701 227.28 267.9 227.889 268.098 228.509C268.297 229.105 268.495 229.7 268.694 230.296C268.917 229.626 269.141 228.956 269.364 228.286C269.612 227.591 269.848 226.896 270.071 226.201L273.385 216.335H274.911L278.672 227.169C278.87 227.715 279.069 228.273 279.267 228.844C279.466 229.415 279.665 229.986 279.863 230.557C280.062 230.011 280.248 229.477 280.422 228.956C280.62 228.41 280.806 227.864 280.98 227.318L283.437 220.244C283.611 219.747 283.785 219.276 283.959 218.829C284.132 218.382 284.331 218.022 284.554 217.749L282.395 217.861V216.335H288.873V217.451C288.228 217.476 287.694 217.563 287.272 217.712C286.875 217.861 286.54 218.06 286.267 218.308C285.994 218.556 285.77 218.854 285.597 219.201C285.423 219.549 285.262 219.946 285.113 220.393L279.751 235.062H278.262L274.725 224.898C274.576 224.451 274.427 224.017 274.279 223.595C274.13 223.148 273.981 222.713 273.832 222.291C273.683 221.845 273.534 221.41 273.385 220.988C273.236 221.41 273.087 221.845 272.938 222.291C272.789 222.713 272.64 223.148 272.491 223.595C272.343 224.017 272.194 224.451 272.045 224.898L268.545 235.062H267.13ZM290.54 233.833C291.31 233.833 291.843 233.647 292.141 233.275C292.439 232.877 292.613 232.344 292.662 231.674C292.712 230.979 292.737 230.184 292.737 229.291V220.802C292.737 220.405 292.749 220.033 292.774 219.685C292.799 219.313 292.836 218.879 292.886 218.382C292.439 218.407 291.992 218.432 291.545 218.457C291.123 218.482 290.689 218.506 290.242 218.531V216.967C291.334 216.967 292.178 216.918 292.774 216.819C293.37 216.719 293.817 216.595 294.114 216.446C294.437 216.297 294.685 216.136 294.859 215.962H295.939V231.003C295.939 231.5 295.926 231.947 295.901 232.344C295.901 232.716 295.864 233.113 295.79 233.535C296.187 233.51 296.572 233.498 296.944 233.498C297.341 233.473 297.738 233.448 298.135 233.423V234.95H290.54V233.833ZM294.152 212.276C293.63 212.276 293.171 212.065 292.774 211.643C292.377 211.222 292.178 210.7 292.178 210.08C292.178 209.459 292.377 208.938 292.774 208.516C293.196 208.069 293.668 207.846 294.189 207.846C294.76 207.846 295.231 208.069 295.604 208.516C296.001 208.938 296.199 209.459 296.199 210.08C296.199 210.7 295.988 211.222 295.566 211.643C295.169 212.065 294.698 212.276 294.152 212.276ZM308.592 235.546C308.022 235.546 307.438 235.459 306.843 235.285C306.247 235.136 305.688 234.826 305.167 234.354C304.671 233.883 304.274 233.2 303.976 232.307C303.678 231.388 303.529 230.184 303.529 228.695L303.604 217.898L300.737 217.935V216.335C301.382 216.31 302.04 216.074 302.71 215.627C303.38 215.156 303.976 214.523 304.497 213.728C305.043 212.934 305.415 212.065 305.614 211.122H306.88V216.335H313.135V217.787L306.88 217.861L306.805 228.211C306.805 229.328 306.892 230.284 307.066 231.078C307.265 231.847 307.575 232.431 307.997 232.828C308.419 233.225 308.965 233.423 309.635 233.423C310.33 233.423 310.975 233.225 311.571 232.828C312.191 232.431 312.737 231.885 313.209 231.19L314.214 232.009C313.668 232.828 313.122 233.473 312.576 233.945C312.055 234.416 311.546 234.764 311.05 234.987C310.553 235.235 310.094 235.384 309.672 235.434C309.25 235.508 308.89 235.546 308.592 235.546ZM327.942 233.833C328.711 233.833 329.245 233.647 329.543 233.275C329.841 232.877 330.015 232.344 330.064 231.674C330.114 230.979 330.139 230.184 330.139 229.291V224.079C330.139 221.944 329.791 220.343 329.096 219.276C328.426 218.209 327.359 217.687 325.894 217.712C324.976 217.737 324.07 217.96 323.176 218.382C322.308 218.804 321.6 219.35 321.054 220.02V231.003C321.054 231.5 321.042 231.947 321.017 232.344C320.992 232.716 320.943 233.113 320.868 233.535C321.265 233.51 321.65 233.498 322.022 233.498C322.419 233.473 322.817 233.448 323.214 233.423V234.95H315.619V233.833C316.388 233.833 316.922 233.647 317.22 233.275C317.517 232.877 317.691 232.344 317.741 231.674C317.815 230.979 317.852 230.184 317.852 229.291V211.681C317.852 211.284 317.852 210.911 317.852 210.564C317.877 210.191 317.915 209.757 317.964 209.261C317.517 209.286 317.071 209.31 316.624 209.335C316.202 209.36 315.768 209.385 315.321 209.41V207.846C316.413 207.846 317.257 207.796 317.852 207.697C318.473 207.598 318.932 207.474 319.23 207.325C319.553 207.176 319.801 207.014 319.975 206.841H321.054V218.196C321.6 217.725 322.208 217.315 322.879 216.967C323.574 216.595 324.281 216.297 325.001 216.074C325.745 215.851 326.465 215.739 327.16 215.739C329.32 215.739 330.871 216.421 331.814 217.787C332.782 219.127 333.278 221.224 333.303 224.079L333.34 231.003C333.34 231.5 333.328 231.947 333.303 232.344C333.303 232.716 333.266 233.113 333.192 233.535C333.589 233.51 333.973 233.498 334.346 233.498C334.743 233.473 335.14 233.448 335.537 233.423V234.95H327.942V233.833ZM355.915 235.546C354.574 235.546 353.445 235.297 352.527 234.801C351.633 234.305 350.95 233.461 350.479 232.269C350.032 231.078 349.809 229.465 349.809 227.429V220.802C349.809 220.405 349.809 220.008 349.809 219.611C349.834 219.214 349.883 218.804 349.958 218.382C349.536 218.407 349.101 218.432 348.655 218.457C348.233 218.457 347.811 218.469 347.389 218.494V216.967H348.543C349.61 216.967 350.38 216.868 350.851 216.67C351.348 216.446 351.732 216.21 352.005 215.962H353.085V227.318C353.085 229.452 353.383 231.053 353.979 232.12C354.599 233.163 355.642 233.672 357.106 233.647C358.049 233.622 358.943 233.337 359.787 232.791C360.655 232.22 361.35 231.55 361.871 230.78V221.212C361.871 220.616 361.884 220.107 361.909 219.685C361.934 219.239 361.983 218.804 362.058 218.382C361.611 218.407 361.164 218.432 360.717 218.457C360.271 218.457 359.824 218.469 359.377 218.494V216.967H360.531C361.598 216.967 362.368 216.868 362.839 216.67C363.336 216.446 363.721 216.21 363.994 215.962H365.073L365.036 230.035C365.036 230.433 365.024 230.991 364.999 231.711C364.974 232.431 364.937 233.039 364.887 233.535C365.334 233.51 365.781 233.486 366.227 233.461C366.674 233.436 367.121 233.411 367.568 233.386V234.95H362.244C362.169 234.528 362.107 234.131 362.058 233.759C362.033 233.386 362.008 233.039 361.983 232.716C361.214 233.486 360.283 234.156 359.191 234.727C358.099 235.273 357.007 235.546 355.915 235.546ZM377.906 235.546C376.665 235.546 375.56 235.372 374.592 235.024C373.624 234.702 372.83 234.329 372.21 233.907L372.359 235.211H370.795L370.572 228.807H371.726C371.775 229.825 372.061 230.743 372.582 231.562C373.103 232.356 373.773 232.977 374.592 233.423C375.412 233.87 376.293 234.094 377.236 234.094C377.881 234.094 378.514 233.994 379.135 233.796C379.755 233.572 380.276 233.25 380.698 232.828C381.12 232.381 381.331 231.823 381.331 231.152C381.331 230.457 381.12 229.887 380.698 229.44C380.301 228.968 379.768 228.559 379.097 228.211C378.427 227.864 377.707 227.541 376.938 227.243C376.193 226.945 375.449 226.635 374.704 226.312C373.96 225.99 373.265 225.605 372.619 225.158C371.999 224.711 371.502 224.165 371.13 223.52C370.758 222.875 370.572 222.081 370.572 221.137C370.572 220.616 370.671 220.045 370.869 219.425C371.068 218.804 371.403 218.221 371.875 217.675C372.346 217.104 372.992 216.645 373.811 216.297C374.63 215.925 375.672 215.739 376.938 215.739C377.608 215.739 378.353 215.851 379.172 216.074C379.991 216.297 380.785 216.719 381.555 217.34L381.48 215.925H383.044V222.44H381.852C381.803 221.572 381.604 220.74 381.257 219.946C380.909 219.127 380.4 218.457 379.73 217.935C379.06 217.389 378.191 217.116 377.124 217.116C375.982 217.116 375.089 217.402 374.444 217.973C373.798 218.544 373.476 219.201 373.476 219.946C373.476 220.715 373.711 221.361 374.183 221.882C374.679 222.378 375.312 222.813 376.082 223.185C376.851 223.557 377.67 223.917 378.539 224.265C379.482 224.662 380.4 225.096 381.294 225.568C382.188 226.039 382.92 226.635 383.491 227.355C384.061 228.05 384.347 228.956 384.347 230.073C384.347 231.314 384.024 232.344 383.379 233.163C382.758 233.982 381.952 234.578 380.959 234.95C379.991 235.347 378.973 235.546 377.906 235.546ZM390.411 235.546C389.841 235.546 389.332 235.322 388.885 234.875C388.463 234.404 388.252 233.833 388.252 233.163C388.252 232.493 388.475 231.922 388.922 231.45C389.369 230.979 389.878 230.743 390.449 230.743C391.069 230.743 391.578 230.979 391.975 231.45C392.397 231.922 392.608 232.493 392.608 233.163C392.608 233.833 392.385 234.404 391.938 234.875C391.491 235.322 390.982 235.546 390.411 235.546Z" fill="#181717"/>
<defs>
<filter id="filter0_f_62_44" x="1.10005" y="0.0499992" width="394.9" height="394.9" filterUnits="userSpaceOnUse" color-interpolation-filters="sRGB">
<feFlood flood-opacity="0" result="BackgroundImageFix"/>
<feBlend mode="normal" in="SourceGraphic" in2="BackgroundImageFix" result="shape"/>
<feGaussianBlur stdDeviation="20.35" result="effect1_foregroundBlur_62_44"/>
</filter>
<radialGradient id="paint0_radial_62_44" cx="0" cy="0" r="1" gradientUnits="userSpaceOnUse" gradientTransform="translate(198.257 257.27) rotate(-70.7537) scale(235.544)">
<stop stop-color="#EA3D3D"/>
<stop offset="1" stop-color="#F1CD4D" stop-opacity="0"/>
</radialGradient>
<radialGradient id="paint1_radial_62_44" cx="0" cy="0" r="1" gradientUnits="userSpaceOnUse" gradientTransform="translate(198.257 257.27) rotate(-70.7537) scale(235.544)">
<stop stop-color="#EA3D3D"/>
<stop offset="1" stop-color="#F1CD4D" stop-opacity="0"/>
</radialGradient>
<radialGradient id="paint2_radial_62_44" cx="0" cy="0" r="1" gradientUnits="userSpaceOnUse" gradientTransform="translate(198.257 257.27) rotate(-70.7537) scale(235.544)">
<stop stop-color="#EA3D3D"/>
<stop offset="1" stop-color="#F1CD4D" stop-opacity="0"/>
</radialGradient>
<radialGradient id="paint3_radial_62_44" cx="0" cy="0" r="1" gradientUnits="userSpaceOnUse" gradientTransform="translate(198.257 257.27) rotate(-70.7537) scale(235.544)">
<stop stop-color="#EA3D3D"/>
<stop offset="1" stop-color="#F1CD4D" stop-opacity="0"/>
</radialGradient>
<radialGradient id="paint4_radial_62_44" cx="0" cy="0" r="1" gradientUnits="userSpaceOnUse" gradientTransform="translate(198.257 257.27) rotate(-69.0639) scale(475.571)">
<stop stop-color="#EA3D3D"/>
<stop offset="1" stop-color="#F1CD4D" stop-opacity="0"/>
</radialGradient>
</defs>
</svg>
